<mxfile host="app.diagrams.net" agent="Mozilla/5.0 (Macintosh; Intel Mac OS X 10_15_7) AppleWebKit/537.36 (KHTML, like Gecko) Chrome/131.0.0.0 Safari/537.36" version="26.0.6">
  <diagram name="Page-1" id="xXHDo-uIw1Z929ROlb47">
    <mxGraphModel dx="1968" dy="1250" grid="1" gridSize="10" guides="1" tooltips="1" connect="1" arrows="1" fold="1" page="1" pageScale="1" pageWidth="850" pageHeight="1100" math="0" shadow="0">
      <root>
        <mxCell id="0" />
        <mxCell id="1" parent="0" />
        <mxCell id="1Xv9RJD3Js5ll79oH-L6-1" value="Video Content &amp; Streaming" style="whiteSpace=wrap;strokeWidth=2;verticalAlign=top;" vertex="1" parent="1">
          <mxGeometry x="1275" y="575" width="365" height="432" as="geometry" />
        </mxCell>
        <mxCell id="1Xv9RJD3Js5ll79oH-L6-2" value="CDN" style="whiteSpace=wrap;strokeWidth=2;" vertex="1" parent="1Xv9RJD3Js5ll79oH-L6-1">
          <mxGeometry x="168" y="46" width="90" height="54" as="geometry" />
        </mxCell>
        <mxCell id="1Xv9RJD3Js5ll79oH-L6-3" value="Content Service" style="whiteSpace=wrap;strokeWidth=2;" vertex="1" parent="1Xv9RJD3Js5ll79oH-L6-1">
          <mxGeometry x="43" y="197" width="174" height="54" as="geometry" />
        </mxCell>
        <mxCell id="1Xv9RJD3Js5ll79oH-L6-4" value="Caching" style="whiteSpace=wrap;strokeWidth=2;" vertex="1" parent="1Xv9RJD3Js5ll79oH-L6-1">
          <mxGeometry x="154" y="349" width="116" height="54" as="geometry" />
        </mxCell>
        <mxCell id="1Xv9RJD3Js5ll79oH-L6-5" value="prioritize availability" style="curved=1;startArrow=none;endArrow=block;exitX=0.17;exitY=0.99;entryX=0.5;entryY=0;rounded=0;" edge="1" parent="1Xv9RJD3Js5ll79oH-L6-1" source="1Xv9RJD3Js5ll79oH-L6-2" target="1Xv9RJD3Js5ll79oH-L6-3">
          <mxGeometry relative="1" as="geometry">
            <Array as="points">
              <mxPoint x="130" y="148" />
            </Array>
          </mxGeometry>
        </mxCell>
        <mxCell id="1Xv9RJD3Js5ll79oH-L6-6" value="eventual consistency" style="curved=1;startArrow=none;endArrow=block;exitX=0.5;exitY=1;entryX=0.25;entryY=-0.01;rounded=0;" edge="1" parent="1Xv9RJD3Js5ll79oH-L6-1" source="1Xv9RJD3Js5ll79oH-L6-3" target="1Xv9RJD3Js5ll79oH-L6-4">
          <mxGeometry relative="1" as="geometry">
            <Array as="points">
              <mxPoint x="130" y="300" />
            </Array>
          </mxGeometry>
        </mxCell>
        <mxCell id="1Xv9RJD3Js5ll79oH-L6-7" value="low latency" style="curved=1;startArrow=none;endArrow=block;exitX=0.76;exitY=-0.01;entryX=0.82;entryY=0.99;rounded=0;" edge="1" parent="1Xv9RJD3Js5ll79oH-L6-1" source="1Xv9RJD3Js5ll79oH-L6-4" target="1Xv9RJD3Js5ll79oH-L6-2">
          <mxGeometry relative="1" as="geometry">
            <Array as="points">
              <mxPoint x="295" y="300" />
              <mxPoint x="295" y="148" />
            </Array>
          </mxGeometry>
        </mxCell>
        <mxCell id="1Xv9RJD3Js5ll79oH-L6-8" value="Database &amp; Data Replication" style="whiteSpace=wrap;strokeWidth=2;" vertex="1" parent="1">
          <mxGeometry x="50" y="776" width="392" height="285" as="geometry" />
        </mxCell>
        <mxCell id="1Xv9RJD3Js5ll79oH-L6-9" value="Load Balancing &amp; Failover" style="whiteSpace=wrap;strokeWidth=2;" vertex="1" parent="1">
          <mxGeometry x="526" y="765.5" width="589" height="233" as="geometry" />
        </mxCell>
        <mxCell id="1Xv9RJD3Js5ll79oH-L6-10" value="User Profiles &amp; Data" style="whiteSpace=wrap;strokeWidth=2;" vertex="1" parent="1">
          <mxGeometry x="420" y="340" width="695" height="289" as="geometry" />
        </mxCell>
        <mxCell id="1Xv9RJD3Js5ll79oH-L6-11" value="Profile Service" style="whiteSpace=wrap;strokeWidth=2;" vertex="1" parent="1">
          <mxGeometry x="500" y="440" width="163" height="54" as="geometry" />
        </mxCell>
        <mxCell id="1Xv9RJD3Js5ll79oH-L6-12" value="Subscription Service" style="whiteSpace=wrap;strokeWidth=2;" vertex="1" parent="1">
          <mxGeometry x="876" y="550" width="204" height="54" as="geometry" />
        </mxCell>
        <mxCell id="1Xv9RJD3Js5ll79oH-L6-13" value="Preferences Service" style="whiteSpace=wrap;strokeWidth=2;" vertex="1" parent="1">
          <mxGeometry x="879" y="420" width="201" height="54" as="geometry" />
        </mxCell>
        <mxCell id="1Xv9RJD3Js5ll79oH-L6-28" style="edgeStyle=orthogonalEdgeStyle;rounded=0;orthogonalLoop=1;jettySize=auto;html=1;exitX=0.25;exitY=1;exitDx=0;exitDy=0;entryX=1;entryY=0.5;entryDx=0;entryDy=0;curved=1;" edge="1" parent="1" source="1Xv9RJD3Js5ll79oH-L6-14" target="1Xv9RJD3Js5ll79oH-L6-17">
          <mxGeometry relative="1" as="geometry" />
        </mxCell>
        <mxCell id="1Xv9RJD3Js5ll79oH-L6-29" style="edgeStyle=orthogonalEdgeStyle;rounded=0;orthogonalLoop=1;jettySize=auto;html=1;exitX=0;exitY=0.25;exitDx=0;exitDy=0;entryX=0.25;entryY=0;entryDx=0;entryDy=0;curved=1;" edge="1" parent="1" source="1Xv9RJD3Js5ll79oH-L6-14" target="1Xv9RJD3Js5ll79oH-L6-16">
          <mxGeometry relative="1" as="geometry" />
        </mxCell>
        <mxCell id="1Xv9RJD3Js5ll79oH-L6-14" value="Global " style="whiteSpace=wrap;strokeWidth=2;" vertex="1" parent="1">
          <mxGeometry x="686" y="790" width="128" height="54" as="geometry" />
        </mxCell>
        <mxCell id="1Xv9RJD3Js5ll79oH-L6-15" value="Regional " style="whiteSpace=wrap;strokeWidth=2;" vertex="1" parent="1">
          <mxGeometry x="890" y="909" width="142" height="54" as="geometry" />
        </mxCell>
        <mxCell id="1Xv9RJD3Js5ll79oH-L6-16" value="User DB" style="whiteSpace=wrap;strokeWidth=2;" vertex="1" parent="1">
          <mxGeometry x="82" y="855" width="115" height="54" as="geometry" />
        </mxCell>
        <mxCell id="1Xv9RJD3Js5ll79oH-L6-17" value="Metadata DB" style="whiteSpace=wrap;strokeWidth=2;" vertex="1" parent="1">
          <mxGeometry x="247" y="855" width="151" height="54" as="geometry" />
        </mxCell>
        <mxCell id="1Xv9RJD3Js5ll79oH-L6-18" value="Replication" style="whiteSpace=wrap;strokeWidth=2;" vertex="1" parent="1">
          <mxGeometry x="161" y="1007" width="140" height="54" as="geometry" />
        </mxCell>
        <mxCell id="1Xv9RJD3Js5ll79oH-L6-19" value="prioritize consistency" style="curved=1;startArrow=none;endArrow=block;exitX=0.65;exitY=1;entryX=0.5;entryY=-0.01;rounded=0;" edge="1" parent="1" source="1Xv9RJD3Js5ll79oH-L6-11" target="1Xv9RJD3Js5ll79oH-L6-12">
          <mxGeometry relative="1" as="geometry">
            <Array as="points">
              <mxPoint x="978" y="513" />
            </Array>
          </mxGeometry>
        </mxCell>
        <mxCell id="1Xv9RJD3Js5ll79oH-L6-20" value="" style="curved=1;startArrow=none;endArrow=block;exitX=1;exitY=0.83;entryX=0.5;entryY=0;rounded=0;" edge="1" parent="1" source="1Xv9RJD3Js5ll79oH-L6-14" target="1Xv9RJD3Js5ll79oH-L6-15">
          <mxGeometry relative="1" as="geometry">
            <Array as="points">
              <mxPoint x="935" y="805" />
            </Array>
          </mxGeometry>
        </mxCell>
        <mxCell id="1Xv9RJD3Js5ll79oH-L6-21" value="data replication" style="curved=1;startArrow=none;endArrow=block;exitX=0.5;exitY=1;entryX=0.22;entryY=-0.01;rounded=0;" edge="1" parent="1" source="1Xv9RJD3Js5ll79oH-L6-16" target="1Xv9RJD3Js5ll79oH-L6-18">
          <mxGeometry relative="1" as="geometry">
            <Array as="points">
              <mxPoint x="140" y="970" />
            </Array>
          </mxGeometry>
        </mxCell>
        <mxCell id="1Xv9RJD3Js5ll79oH-L6-22" value="data replication" style="curved=1;startArrow=none;endArrow=block;exitX=0.5;exitY=1;entryX=0.78;entryY=-0.01;rounded=0;" edge="1" parent="1" source="1Xv9RJD3Js5ll79oH-L6-17" target="1Xv9RJD3Js5ll79oH-L6-18">
          <mxGeometry relative="1" as="geometry">
            <Array as="points">
              <mxPoint x="323" y="970" />
            </Array>
          </mxGeometry>
        </mxCell>
        <mxCell id="1Xv9RJD3Js5ll79oH-L6-23" value="strong consistency" style="curved=1;startArrow=none;endArrow=block;exitX=0.35;exitY=1;entryX=0.25;entryY=0;rounded=0;entryDx=0;entryDy=0;" edge="1" parent="1" source="1Xv9RJD3Js5ll79oH-L6-11" target="1Xv9RJD3Js5ll79oH-L6-14">
          <mxGeometry relative="1" as="geometry">
            <Array as="points">
              <mxPoint x="522" y="513" />
              <mxPoint x="522" y="701" />
            </Array>
          </mxGeometry>
        </mxCell>
        <mxCell id="1Xv9RJD3Js5ll79oH-L6-24" value="strong consistency" style="curved=1;startArrow=none;endArrow=block;exitX=0.5;exitY=0.99;entryX=1;entryY=0.23;rounded=0;" edge="1" parent="1" source="1Xv9RJD3Js5ll79oH-L6-12" target="1Xv9RJD3Js5ll79oH-L6-14">
          <mxGeometry relative="1" as="geometry">
            <Array as="points">
              <mxPoint x="978" y="701" />
            </Array>
          </mxGeometry>
        </mxCell>
        <mxCell id="1Xv9RJD3Js5ll79oH-L6-27" style="edgeStyle=orthogonalEdgeStyle;rounded=0;orthogonalLoop=1;jettySize=auto;html=1;exitX=1;exitY=0.75;exitDx=0;exitDy=0;entryX=0.5;entryY=0;entryDx=0;entryDy=0;curved=1;" edge="1" parent="1" source="1Xv9RJD3Js5ll79oH-L6-15" target="1Xv9RJD3Js5ll79oH-L6-2">
          <mxGeometry relative="1" as="geometry">
            <Array as="points">
              <mxPoint x="1154" y="949" />
              <mxPoint x="1154" y="330" />
              <mxPoint x="1497" y="330" />
              <mxPoint x="1497" y="621" />
            </Array>
          </mxGeometry>
        </mxCell>
      </root>
    </mxGraphModel>
  </diagram>
</mxfile>
